<?xml version="1.0" standalone="no"?>
<!DOCTYPE svg PUBLIC "-//W3C//DTD SVG 20010904//EN"
 "http://www.w3.org/TR/2001/REC-SVG-20010904/DTD/svg10.dtd">
<svg version="1.0" xmlns="http://www.w3.org/2000/svg"
 width="560.000000pt" height="560.000000pt" viewBox="0 0 560.000000 560.000000"
 preserveAspectRatio="xMidYMid meet">
<metadata>
Created by potrace 1.11, written by Peter Selinger 2001-2013
</metadata>
<g transform="translate(0.000000,560.000000) scale(0.100000,-0.100000)"
fill="#000000" stroke="none">
<path d="M0 2800 l0 -2800 2800 0 2800 0 0 2800 0 2800 -2800 0 -2800 0 0
-2800z m1870 2570 c11 -6 23 -10 27 -9 33 6 43 -3 43 -35 0 -31 3 -34 38 -40
72 -12 82 -9 82 24 0 32 1 33 24 24 12 -5 16 -21 16 -75 0 -38 3 -69 8 -69 4
0 20 30 36 66 25 56 33 65 50 60 12 -3 28 -6 37 -6 10 0 27 -24 44 -62 l29
-63 4 42 c4 56 24 67 97 54 30 -6 65 -16 77 -22 12 -6 52 -12 88 -13 44 -1 75
-7 93 -19 18 -12 28 -13 33 -6 8 13 98 5 141 -13 15 -6 32 -10 36 -9 25 5 142
-24 158 -40 11 -11 19 -15 19 -10 0 27 128 14 163 -17 10 -9 17 -11 17 -4 0 7
9 12 20 12 18 0 20 -7 20 -69 0 -75 5 -81 61 -81 l29 0 0 65 c0 36 1 65 3 65
1 0 37 -7 80 -15 43 -8 80 -15 82 -15 16 0 35 -38 35 -69 0 -51 -16 -63 -74
-55 -38 6 -46 4 -46 -10 0 -9 -8 -16 -20 -16 -11 0 -20 5 -20 10 0 7 -6 7 -19
0 -25 -13 -118 4 -142 26 -12 11 -19 12 -24 4 -9 -14 -88 -6 -133 12 -15 6
-39 10 -54 9 -22 -2 -28 2 -28 18 0 23 -27 41 -64 41 -19 0 -26 -5 -26 -20 0
-13 -7 -20 -20 -20 -11 0 -20 3 -20 8 0 4 -26 7 -58 7 -53 1 -122 19 -122 34
0 3 -24 5 -53 3 -34 -2 -68 2 -93 13 -21 9 -68 17 -104 19 -36 1 -80 9 -97 18
-18 9 -33 12 -33 7 0 -6 -7 -9 -16 -7 -10 2 -28 32 -44 73 -15 38 -32 71 -37
72 -5 2 -22 -24 -38 -57 -30 -62 -40 -68 -92 -54 -18 5 -23 14 -23 39 0 29 -4
34 -30 39 -16 3 -43 9 -60 12 -29 5 -30 4 -30 -30 0 -28 -4 -36 -18 -36 -10 0
-21 3 -25 6 -3 3 -28 7 -55 9 -72 5 -130 23 -141 43 -9 17 -14 63 -12 115 1
18 8 30 22 35 25 10 131 -3 159 -18z m-450 -380 c0 -5 -6 -10 -14 -10 -8 0
-16 -6 -19 -12 -6 -17 3 -38 15 -38 6 0 8 7 4 15 -3 9 0 15 9 15 20 0 19 -15
-1 -35 -12 -12 -19 -13 -30 -4 -17 14 -18 51 -2 67 15 15 38 16 38 2z m-67
-30 c2 15 5 7 5 -20 1 -42 0 -44 -13 -26 -12 16 -15 17 -15 4 0 -9 -9 -18 -20
-21 -17 -4 -20 0 -20 24 0 43 -20 35 -22 -8 l-1 -38 -4 33 c-5 39 -28 38 -28
-1 0 -14 -3 -29 -7 -33 -5 -4 -8 0 -8 9 0 25 -18 21 -23 -5 -2 -13 -5 -3 -5
22 0 34 2 40 8 25 9 -19 9 -19 16 2 5 20 39 34 86 38 3 0 10 4 14 8 4 4 13 -2
20 -15 l12 -22 5 24z m-177 -42 c5 -8 2 -9 -10 -5 -10 4 -19 1 -22 -8 -9 -22
4 -48 18 -39 9 6 9 9 0 12 -7 2 -10 8 -6 13 10 16 24 10 24 -11 0 -29 -30 -38
-46 -15 -13 18 -14 18 -14 -2 0 -20 -17 -33 -46 -33 -9 0 -14 11 -14 35 0 19
5 35 11 35 7 0 9 -10 7 -25 -4 -19 -1 -25 13 -25 11 0 18 3 18 8 -1 4 -1 21 1
37 1 25 3 27 9 11 7 -19 8 -19 13 2 7 24 32 30 44 10z m234 -28 c0 -5 -5 -10
-12 -10 -7 0 -5 -7 5 -18 22 -24 7 -47 -26 -38 -16 4 -27 1 -30 -7 -3 -7 -6
-5 -6 6 -1 9 4 17 10 17 6 0 8 9 4 23 -6 21 -5 21 6 2 15 -25 30 -35 42 -28 4
3 0 11 -9 18 -10 7 -15 19 -11 29 7 17 27 22 27 6z m-88 -22 c-15 -15 -16 -32
-2 -23 6 3 10 2 10 -4 0 -5 -6 -12 -12 -14 -10 -4 -9 -8 2 -17 12 -10 11 -11
-7 -7 -13 3 -23 1 -23 -4 0 -5 -7 -9 -15 -9 -8 0 -15 8 -15 18 0 14 2 15 10 2
7 -11 11 -9 19 13 6 16 11 32 11 37 0 5 6 11 13 13 20 9 22 8 9 -5z m-32 -19
c0 -5 -4 -8 -9 -5 -5 4 -12 0 -14 -6 -3 -8 -6 -6 -6 5 -1 9 6 17 14 17 8 0 15
-5 15 -11z m-73 -44 c-1 -26 -3 -31 -10 -20 -4 8 -13 13 -18 10 -5 -4 -6 -11
-3 -17 4 -7 2 -8 -4 -4 -18 11 -14 54 5 65 25 13 31 6 30 -34z m30 -7 c-2 -13
-4 -5 -4 17 -1 22 1 32 4 23 2 -10 2 -28 0 -40z m-97 2 c-1 -17 -23 -50 -35
-50 -4 0 -14 8 -21 18 -12 16 -13 15 -15 -8 -1 -24 -1 -24 -10 4 -11 38 -8 41
23 16 14 -10 28 -16 32 -13 10 10 7 43 -4 43 -5 0 -10 -5 -10 -12 0 -6 -3 -9
-6 -5 -11 10 6 26 26 24 11 -1 20 -8 20 -17z m1986 -44 c197 -92 265 -399 123
-561 -44 -50 -100 -75 -170 -75 -134 0 -250 114 -285 281 -32 155 23 296 138
353 66 33 126 34 194 2z m318 -210 c8 -28 25 -88 37 -134 12 -45 25 -80 28
-77 2 3 21 58 41 123 31 101 38 117 55 114 11 -2 21 -5 23 -7 2 -1 -21 -87
-51 -191 l-54 -189 104 -57 c124 -68 125 -68 176 -138 46 -63 83 -100 100
-101 8 0 8 -2 -1 -6 -7 -3 -50 32 -98 79 -47 45 -96 89 -110 96 -14 7 -22 18
-18 24 4 7 3 8 -4 4 -7 -4 -24 -1 -39 8 -65 34 -89 38 -150 26 -63 -13 -107
-35 -98 -50 4 -6 -7 -10 -24 -10 -17 0 -31 -4 -31 -10 0 -5 -15 -13 -34 -19
-48 -13 -101 -56 -103 -82 -3 -30 -7 -32 -58 -31 -25 1 -56 -3 -67 -9 -144
-77 -224 -321 -196 -601 12 -115 11 -104 8 -216 -2 -51 -7 -87 -11 -81 -5 8
-9 6 -12 -7 -2 -10 -1 -1 2 21 13 93 1 173 -67 436 -42 159 -48 255 -25 339
35 120 124 208 198 194 15 -3 49 -16 77 -30 37 -19 57 -23 83 -18 39 7 42 15
31 78 -3 14 1 37 8 50 12 24 13 24 26 6 8 -10 18 -16 23 -13 6 3 2 12 -8 19
-16 12 -14 13 20 9 20 -3 40 -7 44 -9 4 -3 26 11 50 29 38 31 135 75 162 75 6
0 8 8 5 18 -9 32 -106 393 -106 396 0 2 11 1 25 -1 19 -4 27 -15 39 -57z
m-2010 5 c11 -17 -6 -41 -29 -41 -38 0 -55 -11 -55 -36 0 -19 7 -24 38 -30 51
-9 62 -20 62 -65 0 -57 -44 -103 -96 -102 -21 1 -47 -3 -57 -9 -16 -8 -21 -2
-40 41 -11 28 -26 50 -32 48 -5 -2 -11 -26 -13 -53 -3 -52 -13 -64 -50 -64
-16 0 -26 7 -29 20 -4 16 -11 19 -32 14 -46 -10 -49 -12 -53 -35 -4 -30 -52
-43 -87 -24 -14 7 -34 16 -43 19 -15 5 -18 19 -19 98 l0 93 -25 -69 c-13 -39
-24 -86 -24 -107 0 -20 -7 -42 -15 -49 -13 -11 -15 -7 -15 24 0 20 -9 62 -21
94 -31 84 -34 102 -17 102 8 0 23 -19 32 -42 l18 -43 17 50 c19 53 31 60 134
79 33 6 37 5 37 -13 0 -16 -10 -23 -45 -32 -41 -10 -45 -14 -45 -41 0 -29 1
-30 41 -23 39 7 40 6 37 -16 -2 -18 -11 -25 -33 -29 -26 -4 -30 -10 -33 -39
l-3 -33 38 7 c21 4 40 8 42 11 2 2 16 54 31 116 38 157 46 154 104 -47 l14
-50 1 116 1 117 44 11 c58 14 53 15 81 -15 20 -21 25 -23 25 -10 0 28 46 66
79 66 16 0 32 -4 35 -9z m2485 -47 c34 -37 34 -37 12 -46 -17 -6 -30 -3 -48
12 -34 27 -59 25 -88 -5 -24 -23 -25 -28 -25 -175 l0 -150 -26 0 -26 0 4 163
c3 139 6 166 22 190 46 67 119 72 175 11z m155 -19 c47 -47 56 -86 56 -249 l0
-139 -46 7 c-26 3 -59 6 -75 6 -92 0 -141 155 -71 225 24 25 30 26 89 19 l64
-6 -7 28 c-10 44 -33 75 -63 85 -16 6 -33 21 -39 34 -11 24 -10 25 23 25 26 0
43 -9 69 -35z m151 -146 c22 -87 42 -156 46 -151 4 4 26 71 49 148 37 124 45
141 61 137 11 -3 19 -10 19 -17 0 -6 -38 -135 -84 -286 -73 -243 -85 -275
-102 -272 -10 2 -20 5 -22 6 -1 2 10 42 25 90 l27 87 -48 202 c-27 111 -51
207 -53 213 -3 7 5 10 20 7 21 -4 27 -18 62 -164z m375 84 c44 -39 51 -99 18
-138 l-24 -28 22 -22 c13 -13 26 -39 29 -59 19 -96 -49 -156 -139 -125 -35 12
-41 18 -44 47 -4 37 -4 37 34 17 56 -29 94 -9 94 49 0 37 -21 61 -62 71 -21 5
-28 13 -28 31 0 20 5 24 28 24 35 0 52 16 52 51 0 38 -23 53 -70 46 -38 -5
-40 -4 -40 23 0 32 10 38 62 39 28 1 46 -6 68 -26z m-935 -98 c0 -33 -21 -41
-38 -14 -14 22 -1 51 20 47 13 -2 18 -13 18 -33z m-2247 -137 c-43 -159 -59
-207 -68 -213 -12 -8 -13 11 -1 52 7 25 4 53 -15 120 -28 104 -27 93 -10 93 9
0 19 -20 27 -55 13 -61 23 -69 33 -27 21 83 28 102 41 102 11 0 10 -14 -7 -72z
m-118 23 c5 -11 10 -51 10 -90 0 -66 -1 -71 -24 -77 -39 -9 -60 -1 -70 28 -14
39 6 77 44 85 34 6 35 23 2 38 -12 5 -22 15 -22 22 0 21 48 15 60 -6z m-86 3
c28 -11 18 -33 -16 -36 l-33 -3 -3 -77 c-4 -103 -22 -101 -22 2 0 67 3 83 20
100 21 21 29 23 54 14z m-134 -125 c-12 -49 -24 -88 -26 -86 -7 6 -44 145 -44
162 0 32 18 13 30 -32 l13 -48 13 45 c21 68 25 77 31 62 3 -7 -5 -53 -17 -103z
m-150 91 c0 -5 -2 -10 -4 -10 -3 0 -8 5 -11 10 -3 6 -1 10 4 10 6 0 11 -4 11
-10z m-43 -77 c-17 -44 -22 -52 -28 -37 -21 52 -7 103 25 97 l23 -5 -20 -55z
m233 -7 c0 -8 -4 -18 -10 -21 -5 -3 -10 3 -10 14 0 12 5 21 10 21 6 0 10 -6
10 -14z m1990 -96 c0 -5 -10 -10 -22 -9 -22 0 -22 1 -3 9 11 5 21 9 23 9 1 1
2 -3 2 -9z m1245 -10 c3 -5 -3 -10 -14 -10 -12 0 -21 -7 -21 -15 0 -8 7 -15
15 -15 8 0 15 -4 15 -10 0 -5 -7 -7 -15 -4 -11 5 -15 -1 -15 -20 0 -14 -4 -26
-10 -26 -5 0 -10 25 -10 55 0 52 1 55 24 55 14 0 28 -4 31 -10z m170 -43 c-1
-29 9 -36 19 -12 3 8 11 14 18 13 7 -2 12 3 11 10 -2 6 2 12 7 12 6 0 10 -9
10 -19 0 -14 5 -18 19 -14 10 3 22 -1 27 -8 5 -9 2 -11 -9 -6 -21 8 -22 -1 -1
-24 9 -10 13 -22 10 -27 -7 -12 -84 -14 -91 -3 -2 5 -15 6 -28 4 -16 -3 -26 1
-30 11 -4 9 -2 16 2 16 5 0 11 -6 14 -12 2 -7 8 -9 13 -5 4 4 3 16 -3 26 -8
13 -8 22 -1 29 6 6 7 16 3 22 -6 9 -10 9 -16 -1 -7 -11 -9 -10 -9 4 0 12 6 17
18 15 11 -2 17 -13 17 -31z m-121 1 c12 -16 16 -18 16 -7 0 9 7 16 15 16 8 0
15 -4 15 -9 0 -4 -4 -8 -10 -8 -5 0 -10 -15 -11 -32 0 -18 -3 -27 -6 -20 -4
10 -8 10 -19 1 -23 -19 -44 -3 -44 34 0 52 18 62 44 25z m303 -25 l10 -38 8
38 c10 49 23 47 27 -4 3 -39 4 -39 23 -24 18 15 18 16 2 11 -12 -4 -17 -2 -14
6 5 16 48 12 59 -5 6 -9 8 -9 8 1 0 6 5 12 10 12 7 0 7 -6 0 -20 -8 -14 -8
-26 0 -40 7 -14 7 -20 0 -20 -5 0 -10 6 -10 13 0 9 -2 9 -8 0 -6 -10 -27 -11
-74 -4 -5 0 -8 16 -9 34 l-1 32 -12 -35 -13 -35 -9 35 -8 35 -7 -35 c-5 -30
-7 -27 -8 23 -1 65 12 75 26 20z m-1392 -200 c7 -17 19 -34 27 -39 11 -7 11
-5 0 9 -8 9 -10 22 -6 28 4 8 3 9 -4 5 -8 -5 -10 -1 -5 10 6 16 7 16 19 -1 7
-10 11 -22 8 -26 -3 -5 0 -9 7 -9 7 0 9 -3 6 -7 -4 -3 -2 -12 4 -20 9 -9 8
-13 0 -13 -9 0 -9 -6 0 -22 7 -13 12 -52 10 -90 l-2 -67 31 4 c26 3 30 0 32
-21 0 -13 1 -29 2 -35 1 -6 -24 -25 -54 -41 -63 -33 -80 -51 -73 -78 3 -10 -4
-31 -16 -47 -18 -25 -36 -97 -58 -234 -3 -22 -1 -39 6 -43 15 -10 14 -56 -4
-105 -13 -38 -12 -45 8 -42 4 0 7 -3 7 -8 0 -4 20 -16 45 -25 39 -15 45 -22
45 -46 0 -25 -9 -35 -33 -39 -4 0 -17 -10 -29 -21 -12 -11 -26 -20 -30 -20
-17 0 -46 -35 -50 -60 -4 -29 10 -30 110 -7 l64 15 -7 -25 c-8 -33 -33 -59
-75 -78 -35 -15 -35 -15 43 -13 110 4 120 -13 76 -132 -7 -19 -21 -41 -31 -48
-10 -7 -18 -20 -18 -28 0 -37 -60 -2 -118 70 -56 69 -87 127 -109 200 -8 28
-34 94 -56 146 -35 81 -41 107 -44 180 -5 109 6 172 31 176 23 3 24 4 30 37 3
16 1 25 -5 22 -5 -4 -9 -2 -9 2 0 5 9 14 20 20 15 10 22 10 35 -3 22 -23 18
-43 -10 -50 -14 -4 -24 -9 -21 -12 10 -10 65 21 72 40 7 23 -24 61 -66 78 -43
18 -97 -14 -91 -52 0 -5 -6 -8 -14 -8 -20 0 -31 65 -15 95 11 21 17 22 77 17
60 -4 65 -3 61 14 -2 11 -11 18 -21 18 -9 -1 -17 2 -17 6 0 11 -68 4 -85 -10
-18 -15 -19 4 -5 156 9 107 32 171 88 248 37 50 73 66 146 62 55 -3 59 -5 71
-33z m-1801 -32 c3 -5 -1 -11 -9 -14 -9 -4 -12 -1 -8 9 6 16 10 17 17 5z m19
-108 c-7 -2 -21 -2 -30 0 -10 3 -4 5 12 5 17 0 24 -2 18 -5z m2596 -148 c7
-27 24 -78 37 -113 13 -34 24 -70 24 -79 0 -9 8 -35 19 -57 10 -23 24 -68 31
-101 7 -33 19 -71 27 -85 14 -23 14 -24 -1 -6 -12 15 -16 16 -16 5 0 -8 5 -20
10 -25 6 -6 13 -39 15 -73 3 -35 14 -87 24 -116 15 -41 16 -52 5 -52 -20 0
-57 44 -49 57 6 9 10 9 16 -1 5 -8 9 -9 9 -4 0 14 -19 42 -21 30 0 -5 -7 4
-15 20 -15 30 -13 8 2 -29 5 -15 4 -17 -6 -11 -9 5 -11 4 -6 -4 4 -6 10 -35
12 -64 3 -29 10 -65 15 -82 10 -30 26 -102 35 -160 3 -24 2 -26 -5 -10 -8 16
-10 10 -10 -27 -1 -27 3 -48 8 -48 5 0 7 -8 4 -18 -2 -10 12 -46 32 -81 20
-34 35 -66 33 -72 -2 -6 -14 9 -27 33 -54 97 -56 96 -54 -26 1 -61 3 -122 4
-136 0 -14 -2 -45 -6 -70 -7 -43 -5 -46 24 -63 17 -10 31 -21 31 -25 0 -13
-39 -32 -45 -22 -3 6 2 10 12 10 17 1 17 2 -2 15 -17 14 -20 13 -33 -7 -11
-20 -12 -15 -8 47 6 70 3 75 -9 22 -5 -24 -8 -27 -20 -17 -16 14 -20 40 -6 40
4 0 7 25 6 55 -1 30 2 52 7 49 12 -7 0 52 -16 85 -18 36 -28 123 -15 141 7 11
9 7 7 -19 -2 -22 2 -36 11 -39 8 -3 12 1 9 9 -3 8 -1 25 4 38 5 14 5 27 0 30
-5 3 -1 38 9 76 20 79 17 116 -16 225 -22 74 -44 246 -26 205 6 -13 8 13 6 73
-6 154 -13 189 -71 392 -18 63 -35 133 -39 155 l-6 40 14 -30 c7 -16 19 -52
26 -80z m-2736 -18 c22 -34 30 -83 22 -144 -5 -43 -10 -53 -23 -50 -9 2 -16 9
-14 17 9 39 3 114 -11 127 -32 33 -77 -16 -77 -83 0 -15 -6 -24 -15 -24 -10 0
-15 10 -15 34 0 38 -23 68 -45 59 -19 -7 -27 -40 -23 -93 4 -51 -16 -66 -26
-19 -21 104 15 193 69 173 9 -4 22 -18 29 -32 l13 -26 8 25 c18 60 79 80 108
36z m104 -43 c-3 -3 -12 -4 -19 -1 -8 3 -5 6 6 6 11 1 17 -2 13 -5z m35 -36
c-8 -8 -9 -15 0 -25 8 -11 7 -12 -6 -7 -9 3 -16 9 -16 13 0 8 22 31 29 31 3 0
0 -5 -7 -12z m1963 -109 c5 -22 3 -34 -6 -40 -19 -12 -29 -11 -29 2 0 5 -5 7
-12 3 -7 -4 -8 -3 -4 5 4 6 11 9 16 6 11 -7 21 21 14 40 -4 8 -2 15 4 15 6 0
13 -14 17 -31z m-70 -39 c3 -5 1 -10 -4 -10 -6 0 -11 5 -11 10 0 6 2 10 4 10
3 0 8 -4 11 -10z m-1892 -7 c-7 -2 -21 -2 -30 0 -10 3 -4 5 12 5 17 0 24 -2
18 -5z m2 -23 c3 -6 -1 -7 -9 -4 -18 7 -21 14 -7 14 6 0 13 -4 16 -10z m1934
1 c7 -5 11 -13 8 -18 -9 -15 64 -46 101 -44 20 2 32 -2 32 -10 0 -31 -26 -94
-51 -120 -15 -16 -26 -29 -24 -29 1 0 19 7 38 15 53 22 58 18 12 -10 -22 -14
-49 -25 -60 -25 -12 0 -26 -5 -33 -12 -9 -9 -12 -8 -16 3 -23 66 -46 145 -46
155 0 7 -12 25 -26 41 l-26 28 22 17 c24 20 47 23 69 9z m-396 -16 c-3 -9 -8
-14 -10 -11 -3 3 -2 9 2 15 9 16 15 13 8 -4z m-1878 -55 c6 1 9 6 7 11 -1 6 8
5 20 -2 29 -15 38 -24 16 -16 -10 3 -20 2 -23 -2 -5 -8 83 -51 104 -51 6 0 11
-5 11 -10 0 -6 -13 -4 -32 4 -18 8 -57 25 -85 37 -44 19 -53 27 -53 48 l0 26
13 -24 c6 -13 17 -23 22 -21z m340 30 c-3 -5 -14 -10 -23 -9 -14 0 -13 2 3 9
27 11 27 11 20 0z m1555 -14 c0 -17 -14 -29 -23 -20 -8 8 3 34 14 34 5 0 9 -6
9 -14z m1177 -63 c-3 -10 -5 -2 -5 17 0 19 2 27 5 18 2 -10 2 -26 0 -35z
m-2957 17 c19 -11 31 -19 25 -19 -5 0 -26 8 -45 19 -19 11 -30 19 -25 19 6 0
26 -8 45 -19z m194 -12 c-3 -4 -12 -8 -20 -8 -8 0 -14 4 -14 8 0 4 9 8 19 8
11 0 17 -4 15 -8z m-139 -19 c-4 -6 -1 -9 6 -7 8 1 49 -13 92 -31 64 -29 77
-38 77 -58 l0 -23 -60 30 c-33 17 -60 33 -60 35 0 3 13 -1 30 -10 34 -17 40
-18 40 -6 0 8 -51 33 -67 33 -4 0 -15 6 -23 13 -10 9 -20 11 -30 5 -8 -5 -18
-10 -22 -10 -13 0 -9 28 5 33 18 8 19 8 12 -4z m-22 -69 c-4 -15 -2 -19 10
-14 9 3 15 11 13 17 -1 7 -1 9 1 5 2 -4 11 -4 19 -1 8 3 14 3 14 -1 0 -5 -199
-108 -201 -103 -8 25 -5 35 9 30 10 -4 13 -2 8 5 -4 7 18 24 61 46 37 19 69
35 70 36 0 0 -1 -9 -4 -20z m1545 -52 c-3 -15 -2 -28 2 -28 4 0 7 -16 8 -35 1
-20 4 -40 7 -45 7 -12 -20 -65 -52 -105 -22 -25 -93 -164 -93 -180 0 -3 -11
-23 -25 -43 -14 -20 -25 -34 -25 -30 0 21 51 138 107 245 57 108 63 127 62
175 -1 29 -6 64 -11 77 -8 21 -7 23 8 11 10 -9 14 -24 12 -42z m-1712 -60
c-14 -9 -20 7 -11 30 6 15 8 15 15 -3 4 -12 3 -23 -4 -27z m815 24 c58 -21 92
-49 114 -91 36 -70 -7 -160 -83 -177 -62 -13 -70 -21 -93 -94 -28 -84 -25 -89
54 -143 83 -55 104 -107 73 -181 -17 -40 -64 -75 -111 -83 -41 -7 -47 -13 -65
-71 -10 -30 -29 -57 -63 -87 -54 -47 -90 -57 -155 -45 -29 5 -42 4 -42 -4 -1
-29 -20 24 -20 55 0 29 -7 41 -37 65 -76 61 -127 93 -137 87 -6 -4 -25 -6 -43
-5 -18 2 -33 -2 -33 -8 0 -5 -9 -10 -21 -10 -20 0 -23 25 -3 25 5 1 26 9 47
19 21 10 40 16 43 13 3 -3 29 17 58 44 29 27 68 58 86 68 21 11 37 29 43 47 4
16 6 126 3 244 -3 118 -1 238 3 265 5 30 9 39 10 23 0 -16 5 -28 10 -28 5 0
30 12 57 28 109 61 217 77 305 44z m1497 -21 c3 -47 -9 -58 -33 -31 -16 18
-17 23 -5 45 20 37 36 31 38 -14z m-2078 -107 c0 -56 -4 -83 -10 -79 -7 4 -9
-2 -5 -17 4 -17 0 -29 -17 -44 -54 -48 -113 -6 -103 73 3 24 2 42 -3 39 -4 -2
-7 8 -6 22 1 15 -2 32 -6 37 -5 6 1 10 15 10 13 0 20 -4 17 -9 -3 -6 -4 -35
-3 -65 3 -61 18 -84 61 -94 24 -6 25 -4 28 51 2 31 7 59 13 60 5 2 9 17 9 33
0 17 -4 28 -8 25 -5 -3 -9 1 -9 9 0 8 4 12 9 9 4 -3 8 0 8 6 0 8 -9 10 -23 7
-12 -4 -29 -2 -37 3 -11 7 -3 10 28 10 l42 0 0 -86z m-113 69 c-15 -3 -25 -9
-21 -15 4 -6 -1 -6 -14 1 -27 14 -35 14 -29 -1 2 -7 -7 -26 -19 -41 -13 -16
-24 -37 -24 -47 0 -27 -11 -50 -23 -50 -7 0 -7 4 1 12 14 14 16 32 3 24 -11
-7 2 51 18 81 16 31 36 40 89 40 26 0 35 -2 19 -4z m28 -23 c3 -5 1 -10 -4
-10 -6 0 -11 5 -11 10 0 6 2 10 4 10 3 0 8 -4 11 -10z m62 -42 c-3 -8 -6 -5
-6 6 -1 11 2 17 5 13 3 -3 4 -12 1 -19z m2911 -83 c-3 -3 -9 2 -12 12 -6 14
-5 15 5 6 7 -7 10 -15 7 -18z m-918 -5 c0 -5 -18 -14 -41 -20 -22 -6 -48 -14
-57 -17 -15 -6 -15 -4 2 15 17 20 37 27 79 31 9 0 17 -3 17 -9z m-2186 -116
c-6 -72 8 -107 46 -119 20 -6 20 -8 4 -20 -26 -18 -40 -9 -64 39 -24 50 -26
92 -5 100 8 3 15 13 15 23 0 15 -2 16 -10 3 -5 -8 -10 -11 -10 -7 0 10 19 47
25 47 2 0 1 -30 -1 -66z m-366 -36 c7 -7 12 -39 12 -75 0 -50 3 -63 15 -63 11
0 16 -11 16 -37 1 -76 1 -223 0 -235 0 -7 2 -48 5 -90 4 -45 2 -90 -4 -107 -7
-19 -7 -33 -1 -36 14 -9 11 -45 -5 -45 -18 0 -26 -22 -26 -70 0 -29 4 -39 20
-43 21 -5 29 -47 10 -47 -7 0 -7 -6 0 -19 15 -29 13 -163 -4 -186 -10 -14 -21
-17 -51 -12 -21 4 -42 12 -46 19 -13 20 -10 380 3 395 7 9 7 17 -1 27 -17 20
-26 148 -13 185 7 19 7 31 1 31 -5 0 -9 11 -9 25 0 23 3 25 50 25 l51 0 -3 58
-3 57 -49 3 -48 3 4 112 c2 62 8 118 12 125 9 15 48 16 64 0z m2145 -8 c-3
-11 -9 -20 -15 -20 -5 0 -4 9 2 20 6 11 12 20 14 20 2 0 2 -9 -1 -20z m-13
-34 c0 -3 -4 -8 -10 -11 -5 -3 -10 -1 -10 4 0 6 5 11 10 11 6 0 10 -2 10 -4z
m-240 -88 c-31 -91 -50 -181 -29 -140 7 12 16 22 20 22 11 0 -19 -81 -35 -95
-6 -5 -11 -14 -11 -20 0 -16 -28 -51 -52 -64 -13 -6 -23 -15 -23 -20 0 -16 56
2 83 27 22 21 27 22 27 9 0 -23 -46 -50 -89 -53 -28 -1 -48 -12 -84 -45 -43
-39 -87 -96 -87 -113 0 -4 24 17 53 47 29 30 66 61 84 70 48 25 173 57 218 56
22 -1 31 -3 20 -6 -91 -21 -96 -23 -85 -43 6 -11 16 -20 23 -20 19 0 36 -21
30 -36 -3 -8 -11 -14 -18 -14 -8 0 -12 -20 -11 -71 0 -51 -4 -73 -14 -79 -8
-6 -10 -10 -4 -10 6 0 36 18 67 40 52 36 75 42 45 11 -11 -10 -10 -11 3 -6 9
3 16 1 16 -8 0 -7 -35 -32 -78 -56 -51 -29 -76 -49 -75 -59 2 -9 -3 -23 -11
-30 -7 -8 -10 -18 -7 -23 3 -6 -2 -17 -12 -24 -11 -8 -14 -15 -8 -15 13 0 5
-55 -15 -104 -6 -16 -9 -37 -6 -47 7 -20 -21 -40 -44 -31 -8 3 -12 -1 -9 -9 3
-8 -9 -41 -25 -73 -17 -33 -30 -72 -31 -87 -1 -15 -5 -27 -10 -26 -14 3 -24
-44 -18 -92 l4 -44 -48 7 -49 7 33 -17 c31 -16 33 -20 27 -48 -4 -17 -8 -40
-10 -51 -2 -11 -10 -40 -18 -64 -9 -24 -13 -49 -11 -56 3 -7 1 -16 -5 -20 -6
-3 -11 -13 -11 -20 0 -8 -11 -39 -25 -69 -14 -30 -25 -61 -25 -70 0 -8 -4 -18
-10 -21 -5 -3 -10 -17 -10 -31 0 -13 -4 -24 -10 -24 -5 0 -7 -7 -4 -15 4 -8 1
-15 -5 -15 -6 0 -11 -8 -11 -17 0 -21 -21 -81 -35 -103 -5 -8 -10 -21 -10 -30
-2 -18 -37 -113 -45 -120 -3 -3 -18 -32 -34 -65 -15 -33 -34 -72 -43 -88 -8
-15 -12 -31 -9 -36 7 -11 -128 -35 -150 -27 -9 3 -25 1 -37 -6 -12 -7 -26 -13
-32 -14 -5 -1 -22 -5 -37 -9 l-27 -7 34 64 c38 72 77 198 95 308 6 41 31 149
54 240 24 91 53 219 66 285 27 142 109 473 140 564 24 72 53 133 113 236 23
39 40 78 40 88 -1 9 2 15 6 13 5 -3 6 5 4 18 -3 12 5 39 16 60 24 42 26 50 9
40 -8 -4 -10 -3 -5 2 5 5 12 9 15 9 18 1 52 27 47 36 -4 5 -3 8 2 7 4 -1 31
15 60 35 83 61 92 83 130 314 3 18 9 30 14 27 5 -3 13 6 19 20 5 14 12 26 14
26 2 0 -8 -37 -24 -82z m-1340 25 c1 -16 2 -16 15 1 15 19 15 19 15 -2 0 -21
-4 -22 -77 -22 -81 0 -96 9 -20 13 62 3 68 13 10 16 -67 3 -67 11 0 11 48 0
57 -3 57 -17z m-60 -102 c0 -23 -16 -36 -25 -21 -9 14 1 40 15 40 5 0 10 -9
10 -19z m1416 -68 c-6 -26 -12 -38 -14 -27 -3 19 13 74 21 74 2 0 -1 -21 -7
-47z m-1532 28 c3 -5 -2 -15 -12 -22 -15 -13 -16 -12 -4 3 11 14 10 17 -5 21
-16 4 -16 5 -1 6 9 0 19 -3 22 -8z m2436 0 c0 -12 -53 -19 -76 -10 -19 7 -17
7 64 17 6 1 12 -2 12 -7z m-642 -36 c-3 -3 -9 2 -12 12 -6 14 -5 15 5 6 7 -7
10 -15 7 -18z m433 4 c46 3 57 -12 24 -33 -18 -12 -25 -26 -25 -49 0 -17 -9
-51 -20 -75 -17 -37 -23 -42 -41 -37 -15 5 -19 4 -15 -4 11 -17 -16 -13 -43 5
-18 13 -22 23 -17 45 4 20 2 28 -7 26 -7 -1 -11 6 -9 18 5 26 30 65 42 65 6 0
10 8 10 18 0 30 20 43 44 30 12 -7 37 -11 57 -9z m-2146 -39 c3 -5 1 -10 -4
-10 -6 0 -11 5 -11 10 0 6 2 10 4 10 3 0 8 -4 11 -10z m65 -10 c0 -5 -8 -10
-17 -10 -15 0 -16 2 -3 10 19 12 20 12 20 0z m-51 -19 c18 -11 6 -30 -17 -27
-9 2 -16 6 -14 9 1 4 2 12 2 17 0 12 10 13 29 1z m-64 -89 c-18 -15 -65 -32
-65 -23 0 4 15 13 33 19 42 13 43 13 32 4z m1879 -28 c5 -12 2 -12 -17 -2 -12
7 -26 11 -30 10 -5 -1 -6 2 -3 7 8 13 43 2 50 -15z m-50 -49 c3 -8 2 -15 -3
-15 -5 0 -14 7 -21 15 -10 12 -10 15 3 15 8 0 17 -7 21 -15z m1157 -12 c11
-13 11 -17 1 -20 -6 -3 -10 -9 -7 -14 4 -5 1 -17 -4 -26 -6 -11 -11 -13 -11
-5 0 8 -5 10 -12 6 -8 -5 -9 -2 -5 10 4 10 7 29 7 42 0 28 12 31 31 7z m-2971
-28 c-21 -12 -22 -14 -6 -15 11 0 17 -2 14 -5 -3 -4 -19 -3 -34 1 l-29 7 30
13 c40 18 56 17 25 -1z m76 -11 c-5 -12 -1 -14 14 -9 42 13 133 -129 114 -178
-3 -10 -1 -17 5 -17 12 0 15 -59 5 -110 -5 -22 -9 -28 -15 -18 -12 18 -11 40
1 33 22 -13 -11 142 -40 193 -11 17 -15 32 -9 32 6 0 7 5 4 11 -4 6 -9 8 -12
5 -3 -3 -18 3 -33 14 -15 11 -38 24 -51 29 -19 8 -20 10 -6 10 10 1 15 6 12
11 -3 6 -1 10 5 10 7 0 9 -7 6 -16z m-125 -38 c-12 -13 -21 -36 -21 -54 0 -25
-3 -30 -16 -25 -9 3 -11 9 -6 12 5 3 11 17 14 31 3 14 9 34 13 45 7 16 4 15
-14 -5 -12 -14 -19 -18 -15 -10 14 30 25 38 45 33 20 -6 20 -6 0 -27z m779
-91 c21 -22 22 -29 12 -45 -7 -11 -12 -35 -12 -54 0 -26 -8 -41 -35 -65 -20
-17 -46 -31 -59 -31 -12 0 -49 -9 -82 -21 -83 -29 -145 -39 -166 -28 -13 7
-18 6 -19 -3 0 -7 -4 -4 -9 7 -11 25 -11 161 0 195 4 14 9 18 9 10 1 -11 3
-12 9 -2 11 16 58 31 157 47 130 21 168 19 195 -10z m-706 -86 c5 -4 -2 -6
-15 -3 -21 5 -22 4 -6 -6 10 -6 24 -9 31 -7 8 3 30 -8 50 -25 29 -24 35 -35
31 -56 -5 -29 -46 -67 -56 -51 -9 15 -39 -1 -32 -17 3 -8 -1 -14 -10 -14 -33
0 -26 20 14 40 22 12 38 16 34 9 -5 -7 -3 -10 6 -7 8 3 13 11 11 17 -1 7 2 10
7 7 5 -4 12 -2 15 3 3 5 -1 12 -10 15 -13 5 -14 9 -5 20 9 11 6 19 -19 36 -30
21 -41 16 -17 -9 6 -7 -8 1 -33 17 -42 28 -122 105 -91 87 11 -6 13 -4 7 10
-5 15 14 1 88 -66z m-134 3 c0 -26 -5 -54 -10 -62 -7 -10 -10 5 -10 53 0 43 4
66 10 62 6 -3 10 -27 10 -53z m3104 24 c3 -14 21 -44 39 -68 18 -24 45 -65 60
-92 33 -59 36 -91 6 -52 -12 15 -23 25 -26 23 -2 -3 -20 10 -39 29 -36 37 -45
34 -17 -6 15 -22 15 -24 1 -12 -17 14 -44 80 -40 96 2 5 -2 22 -8 37 -12 28
-6 69 10 69 4 0 11 -11 14 -24z m110 -27 c55 -37 131 -127 156 -184 29 -68 32
-131 13 -290 -16 -143 -18 -177 -12 -325 1 -36 -1 -112 -4 -170 -3 -58 -5
-117 -6 -131 -1 -20 -6 -25 -23 -24 -23 2 -24 2 -59 83 -31 71 -84 119 -143
127 -109 17 -280 -76 -466 -252 -58 -55 -132 -115 -165 -133 l-60 -33 105 107
c238 244 442 352 605 322 41 -8 108 -63 131 -109 17 -31 26 -30 29 5 1 15 8
23 21 23 15 0 20 8 22 43 2 24 -1 42 -7 42 -6 0 -15 9 -20 19 -9 16 -8 18 10
14 21 -6 21 -3 17 58 -3 55 -9 72 -43 119 -41 57 -53 73 -71 93 -5 7 -19 28
-30 47 -10 19 -29 48 -42 64 -13 16 -21 35 -18 42 3 7 1 16 -4 19 -6 4 -10 11
-10 16 0 6 4 8 9 4 5 -3 11 3 13 12 3 10 8 -1 12 -25 5 -25 13 -41 19 -39 7 2
16 -4 22 -13 12 -20 115 -174 119 -178 4 -4 37 245 39 288 3 101 -3 127 -40
183 -21 30 -42 55 -47 54 -6 -1 -10 3 -11 8 -1 24 -47 87 -76 103 -17 9 -38
22 -47 29 -15 11 -15 12 -1 13 8 0 37 -14 63 -31z m-2 -61 c4 1 4 -6 1 -15 -4
-9 -2 -14 3 -11 5 4 9 -5 9 -19 l0 -24 -15 23 c-8 12 -23 31 -32 40 -25 25
-22 31 5 16 12 -7 25 -11 29 -10z m-3179 -95 c8 -6 17 -9 20 -6 3 2 14 0 24
-6 15 -10 13 -11 -15 -7 -33 4 -57 18 -79 45 -22 26 -14 31 11 8 13 -12 31
-27 39 -34z m3046 10 c2 -2 2 -5 -1 -8 -2 -3 -18 10 -34 28 l-29 32 30 -25
c17 -14 32 -26 34 -27z m-2779 -23 c-12 -23 -16 -24 -26 -8 -5 7 -3 8 6 3 10
-6 12 -4 7 9 -4 11 -3 15 4 10 8 -4 9 1 5 17 -6 20 -5 21 4 7 8 -13 8 -23 0
-38z m1805 30 c3 -5 15 -10 26 -10 18 0 89 -60 89 -76 0 -3 16 -24 35 -47 19
-22 35 -49 35 -58 0 -10 5 -21 10 -24 6 -3 10 -21 10 -40 0 -18 6 -36 13 -38
9 -4 9 -8 1 -14 -6 -4 -15 -23 -19 -41 -5 -23 -12 -32 -23 -30 -11 2 -17 -4
-17 -17 -1 -31 -14 -45 -43 -46 -48 -2 44 -18 153 -26 55 -4 84 -9 64 -11 -19
-2 -48 -14 -65 -28 -28 -25 -28 -26 -10 -40 17 -12 17 -14 3 -20 -10 -3 -17
-15 -17 -25 0 -12 -7 -19 -20 -19 -11 0 -20 -4 -20 -10 0 -5 5 -10 12 -10 6 0
4 -6 -6 -13 -9 -7 -23 -24 -29 -37 -11 -21 -19 -25 -57 -23 -24 1 -47 7 -50
14 -11 17 -28 -17 -23 -45 5 -22 33 -39 86 -52 16 -3 34 -15 40 -25 7 -11 17
-19 23 -19 17 0 37 -62 24 -70 -7 -4 -8 -18 -4 -33 4 -17 2 -27 -5 -27 -6 0
-11 -4 -11 -10 0 -5 15 -1 33 9 33 20 217 53 217 40 0 -17 -33 -39 -59 -39
-43 0 -90 -20 -102 -42 -11 -20 -9 -21 60 -14 60 6 70 5 65 -8 -3 -8 -26 -17
-57 -21 -78 -11 -88 -18 -106 -65 -14 -39 -22 -46 -60 -57 -60 -17 -62 -23 -7
-17 36 4 46 2 46 -9 0 -8 -14 -20 -31 -26 -40 -14 -39 -14 -40 7 0 14 -2 14
-9 -3 -12 -28 -12 -37 0 -30 6 3 10 2 10 -3 0 -8 -174 -42 -215 -42 -24 0 -17
27 9 34 14 3 28 15 31 26 3 11 12 20 18 21 7 1 29 3 50 4 21 2 45 6 52 9 8 3
16 -3 18 -12 3 -9 4 -5 4 9 -1 25 -3 26 -27 17 -14 -6 -37 -11 -52 -12 -16 -2
-37 -3 -48 -4 -11 -1 -20 -8 -20 -16 0 -8 -7 -16 -14 -19 -10 -4 -13 -1 -9 9
8 21 -29 18 -49 -5 -9 -11 -13 -21 -8 -23 5 -2 7 -13 3 -26 -3 -13 -11 -21
-18 -18 -7 2 -18 -1 -24 -7 -15 -15 -27 -1 -13 16 6 7 14 34 17 60 6 46 5 47
-18 38 -34 -13 -78 31 -122 123 -67 142 -76 179 -82 339 -3 81 -10 147 -15
147 -5 0 -31 -12 -59 -26 -28 -14 -53 -23 -56 -20 -3 2 40 28 96 55 96 49 122
67 84 59 -42 -9 -88 91 -81 176 6 78 51 160 124 231 86 83 101 95 123 95 11 0
23 5 26 10 3 6 28 10 55 10 27 0 52 -4 55 -10z m995 -51 c0 -6 -4 -7 -10 -4
-5 3 -10 11 -10 16 0 6 5 7 10 4 6 -3 10 -11 10 -16z m-3064 -21 l29 -33 -32
29 c-31 28 -38 36 -30 36 2 0 16 -15 33 -32z m211 -25 c-37 -33 -67 -43 -67
-22 0 6 7 9 15 5 8 -3 14 -2 12 3 -3 12 57 60 67 53 5 -3 -7 -20 -27 -39z
m1593 39 c0 -5 -7 -17 -16 -28 -8 -10 -12 -13 -8 -5 4 9 3 12 -4 7 -6 -4 -9
-13 -5 -21 3 -8 1 -15 -4 -15 -6 0 -15 -10 -21 -22 -10 -21 -11 -20 -9 10 1
25 10 41 32 58 34 27 35 27 35 16z m-1716 -55 c3 4 6 2 6 -4 0 -6 10 -9 23 -7
20 4 20 4 2 -4 -21 -9 -70 3 -81 19 -3 5 5 5 19 0 14 -6 28 -7 31 -4z m449
-29 c64 -58 55 -133 -23 -189 -31 -22 -77 -31 -86 -17 -8 12 -7 192 1 217 10
31 67 26 108 -11z m2631 -148 c-5 -5 -10 3 -11 18 -1 22 0 24 9 8 6 -10 6 -22
2 -26z m-514 -79 c0 -11 -3 -11 -15 -1 -8 7 -15 22 -15 33 0 20 0 20 15 1 8
-10 15 -25 15 -33z m-3070 -75 c0 -80 15 -120 48 -124 12 -2 22 -7 22 -12 0
-19 -39 -29 -93 -23 l-57 6 0 114 0 114 40 -3 40 -2 0 -70z m67 32 c18 -17 23
-32 23 -70 0 -45 -2 -48 -25 -48 -19 0 -28 8 -36 28 -10 26 -4 112 8 112 4 0
17 -10 30 -22z m4020 -474 c-3 -3 -12 -4 -19 -1 -8 3 -5 6 6 6 11 1 17 -2 13
-5z m-70 -10 c-3 -3 -12 -4 -19 -1 -8 3 -5 6 6 6 11 1 17 -2 13 -5z m-944 -18
c4 -9 -9 -28 -31 -47 l-36 -32 -18 39 c-16 37 -16 39 0 46 31 12 80 9 85 -6z
m730 -3 c-7 -2 -21 -2 -30 0 -10 3 -4 5 12 5 17 0 24 -2 18 -5z m-145 -38 c16
-34 15 -53 0 -33 -18 21 -88 13 -89 -11 0 -10 -4 -7 -10 8 -14 35 -5 49 33 54
18 2 38 5 44 5 6 1 16 -9 22 -23z m379 19 c-3 -3 -12 -4 -19 -1 -8 3 -5 6 6 6
11 1 17 -2 13 -5z m-508 -46 c13 -38 6 -52 -8 -14 -6 14 -18 26 -27 26 -12 0
-14 -7 -10 -32 l6 -33 -15 32 c-20 43 -46 35 -39 -10 4 -23 3 -28 -4 -17 -6 8
-12 26 -14 40 -3 22 2 26 32 31 63 11 68 10 79 -23z m-134 -20 c16 -38 11 -43
-53 -51 -39 -5 -44 -3 -53 21 -14 36 -5 50 33 55 18 2 39 5 46 5 7 1 19 -13
27 -30z m-131 -26 c5 -18 7 -34 5 -37 -2 -2 -27 -7 -55 -10 -51 -7 -51 -7 -63
26 -13 38 -12 40 36 50 57 11 66 7 77 -29z m-1344 -19 c13 -27 34 -68 46 -93
12 -25 24 -61 25 -80 2 -19 7 -37 10 -40 4 -3 9 -14 11 -25 1 -11 13 -25 25
-30 53 -25 -41 -60 -240 -88 -34 -5 -38 -4 -32 11 9 21 14 37 58 182 20 63 41
136 47 163 7 26 16 47 20 47 4 0 18 -21 30 -47z m1208 -38 c-2 -2 -23 -5 -48
-7 -58 -4 -65 19 -18 61 l33 30 18 -40 c10 -23 17 -42 15 -44z m-825 -145 c7
0 6 -4 -3 -10 -12 -7 -12 -12 5 -29 25 -28 12 -37 -35 -24 -46 12 -44 -2 3
-16 32 -9 32 -9 4 -10 -30 -1 -148 60 -129 67 7 2 35 -1 63 -7 52 -11 79 -9
40 4 -12 3 -21 10 -21 15 0 10 30 19 48 14 8 -2 19 -4 25 -4z"/>
<path d="M1737 5343 c-10 -9 -8 -66 2 -82 11 -17 111 -28 111 -12 0 6 12 11
26 11 21 0 25 4 22 22 -2 13 -11 24 -21 26 -11 2 -27 12 -38 23 -19 19 -88 27
-102 12z"/>
<path d="M2350 5200 c0 -34 4 -42 26 -50 14 -6 41 -10 60 -10 33 0 34 1 34 40
0 34 -4 42 -26 50 -14 6 -41 10 -60 10 -33 0 -34 -1 -34 -40z"/>
<path d="M2556 5213 c-4 -4 -15 -8 -24 -8 -9 0 -18 -7 -20 -15 -2 -12 10 -15
63 -15 47 -1 65 3 65 12 0 22 -67 42 -84 26z"/>
<path d="M2720 5141 c0 -46 17 -63 67 -65 45 -1 55 20 14 29 -17 4 -31 12 -31
19 0 10 10 11 43 5 54 -11 57 -11 57 -1 0 15 -86 52 -119 52 -29 0 -31 -2 -31
-39z"/>
<path d="M2552 5134 c5 -27 59 -40 97 -23 38 17 40 29 4 29 -16 0 -45 3 -67 7
-33 5 -38 4 -34 -13z"/>
<path d="M2912 5128 c2 -19 10 -24 46 -26 33 -2 42 0 42 13 0 16 -38 35 -71
35 -15 0 -20 -6 -17 -22z"/>
<path d="M3080 5080 c0 -44 18 -60 69 -60 24 0 32 5 37 24 13 52 -12 76 -78
76 -26 0 -28 -3 -28 -40z"/>
<path d="M3025 5070 c3 -5 8 -10 11 -10 2 0 4 5 4 10 0 6 -5 10 -11 10 -5 0
-7 -4 -4 -10z"/>
<path d="M3440 5036 c0 -18 7 -25 31 -30 46 -9 49 -8 49 14 0 13 -10 24 -26
30 -40 16 -54 12 -54 -14z"/>
<path d="M1190 4820 c0 -5 5 -10 10 -10 6 0 10 5 10 10 0 6 -4 10 -10 10 -5 0
-10 -4 -10 -10z"/>
<path d="M2977 4749 c-63 -37 -71 -178 -17 -322 29 -77 46 -73 80 18 60 160
107 220 166 213 22 -3 30 0 27 9 -7 17 -67 62 -108 79 -40 16 -122 18 -148 3z
m153 -29 c50 -27 1 -47 -71 -30 -53 13 -69 27 -48 42 16 10 91 3 119 -12z"/>
<path d="M2877 4682 c-34 -52 -47 -103 -47 -188 0 -135 58 -243 160 -297 148
-78 290 24 299 214 4 94 -21 163 -65 180 -47 17 -73 -12 -127 -147 -70 -171
-95 -191 -143 -109 -57 99 -82 260 -53 344 16 46 6 47 -24 3z"/>
<path d="M3580 4136 c0 -2 7 -7 16 -10 8 -3 12 -2 9 4 -6 10 -25 14 -25 6z"/>
<path d="M2913 3943 c-18 -9 -35 -23 -37 -30 -4 -9 4 -7 20 6 15 12 40 21 56
21 17 0 27 4 23 10 -8 14 -24 12 -62 -7z"/>
<path d="M2831 3834 c-12 -20 -20 -38 -18 -40 2 -2 14 14 26 36 28 50 21 53
-8 4z"/>
<path d="M2898 3828 c-53 -82 -93 -218 -69 -232 6 -4 11 -4 10 1 -3 9 16 59
32 86 7 13 7 22 0 31 -7 9 -2 30 19 74 30 64 33 79 8 40z m-48 -158 c-17 -52
-25 -44 -9 9 7 23 14 39 17 36 3 -3 -1 -23 -8 -45z"/>
<path d="M2806 3759 c-8 -25 -18 -114 -12 -108 8 8 27 111 21 117 -2 3 -7 -1
-9 -9z"/>
<path d="M1227 4474 c-13 -13 -8 -74 6 -74 45 0 65 72 22 78 -12 2 -24 0 -28
-4z"/>
<path d="M1306 4409 c-10 -21 -14 -44 -11 -61 8 -33 24 -46 35 -28 5 8 17 10
32 7 33 -9 61 13 56 44 -2 19 -10 25 -35 27 -19 2 -39 12 -47 23 -13 20 -14
19 -30 -12z"/>
<path d="M1098 4395 c-3 -6 -8 -27 -12 -47 -6 -31 -4 -38 9 -38 9 0 18 7 22
16 7 18 -10 83 -19 69z"/>
<path d="M3970 4281 c-31 -59 2 -109 75 -113 l50 -3 3 61 3 61 -38 7 c-62 10
-82 7 -93 -13z"/>
<path d="M1255 4114 c-21 -22 -14 -39 16 -39 19 0 25 6 27 28 4 31 -17 37 -43
11z"/>
<path d="M4560 3904 c0 -14 5 -24 11 -22 6 2 10 7 10 11 -1 4 -1 14 -1 22 0 8
-4 15 -10 15 -5 0 -10 -12 -10 -26z"/>
<path d="M4600 3892 c0 -5 7 -13 16 -16 10 -4 14 -1 12 6 -5 15 -28 23 -28 10z"/>
<path d="M4382 3926 c2 -15 8 -26 13 -26 15 0 12 43 -3 48 -10 3 -13 -4 -10
-22z"/>
<path d="M4811 3880 c0 -29 1 -32 10 -17 7 11 7 23 0 35 -9 14 -10 11 -10 -18z"/>
<path d="M4775 3871 c-6 -11 9 -23 19 -14 9 9 7 23 -3 23 -6 0 -12 -4 -16 -9z"/>
<path d="M3215 2830 c3 -5 8 -10 11 -10 2 0 4 5 4 10 0 6 -5 10 -11 10 -5 0
-7 -4 -4 -10z"/>
<path d="M4251 2890 c0 -8 4 -24 9 -35 5 -13 9 -14 9 -5 0 8 -4 24 -9 35 -5
13 -9 14 -9 5z"/>
<path d="M4280 2766 c0 -2 7 -9 15 -16 13 -11 14 -10 9 4 -5 14 -24 23 -24 12z"/>
<path d="M1506 2951 c-3 -5 1 -11 9 -15 9 -3 15 0 15 9 0 16 -16 20 -24 6z"/>
<path d="M1305 2943 c-16 -9 -33 -20 -36 -25 -3 -5 -9 -9 -13 -9 -18 3 -23 0
-23 -13 0 -17 27 -6 61 26 11 10 26 16 33 14 7 -3 13 1 13 9 0 18 2 18 -35 -2z"/>
<path d="M1631 2425 c0 -100 1 -108 14 -85 18 32 18 126 0 165 -12 28 -13 21
-14 -80z"/>
<path d="M1290 2640 c0 -5 5 -10 10 -10 6 0 10 -6 10 -14 0 -8 7 -17 16 -20
11 -4 10 2 -6 24 -22 32 -30 37 -30 20z"/>
<path d="M1391 2634 c0 -11 3 -14 6 -6 3 7 2 16 -1 19 -3 4 -6 -2 -5 -13z"/>
<path d="M1350 2599 c0 -5 5 -7 10 -4 6 3 10 8 10 11 0 2 -4 4 -10 4 -5 0 -10
-5 -10 -11z"/>
<path d="M1206 2775 c-3 -8 -1 -15 3 -15 5 0 11 7 15 15 3 8 1 15 -3 15 -5 0
-11 -7 -15 -15z"/>
<path d="M1190 2463 c0 -7 11 -25 25 -40 13 -15 25 -23 25 -16 0 7 -6 16 -13
20 -8 4 -19 17 -25 28 -6 11 -12 15 -12 8z"/>
<path d="M797 2474 c-4 -4 -7 -29 -7 -56 0 -42 3 -48 21 -48 18 0 20 5 17 52
-3 48 -15 68 -31 52z"/>
<path d="M794 2036 c-3 -7 -4 -38 -2 -67 3 -53 4 -54 33 -54 30 0 30 1 33 59
3 61 -5 76 -41 76 -10 0 -20 -6 -23 -14z"/>
<path d="M830 1854 c0 -8 5 -12 10 -9 6 3 10 10 10 16 0 5 -4 9 -10 9 -5 0
-10 -7 -10 -16z"/>
<path d="M802 1818 c-7 -7 -12 -34 -12 -60 0 -41 3 -48 20 -48 18 0 20 7 20
54 0 57 -9 73 -28 54z"/>
<path d="M810 1646 c0 -14 -4 -28 -10 -31 -14 -9 -12 -109 2 -123 7 -7 22 -12
35 -12 26 0 36 27 31 85 -4 52 -28 59 -28 9 0 -20 -3 -35 -6 -32 -3 4 -5 31
-5 62 0 31 -5 58 -10 61 -5 4 -9 -5 -9 -19z"/>
<path d="M2394 1098 c-31 -36 -47 -58 -41 -58 3 0 20 18 37 40 34 43 36 55 4
18z"/>
<path d="M1350 1926 c0 -2 11 -11 25 -20 28 -19 33 -15 9 8 -14 15 -34 22 -34
12z"/>
<path d="M1220 1755 c13 -14 26 -23 28 -20 7 7 -29 45 -41 45 -6 0 0 -11 13
-25z"/>
<path d="M3431 1244 c0 -11 3 -14 6 -6 3 7 2 16 -1 19 -3 4 -6 -2 -5 -13z"/>
<path d="M3391 1104 c0 -11 3 -14 6 -6 3 7 2 16 -1 19 -3 4 -6 -2 -5 -13z"/>
<path d="M3356 1026 c-19 -40 -22 -86 -5 -69 6 6 19 9 28 6 11 -3 12 -2 4 4
-10 7 -10 18 -3 43 12 43 12 50 1 50 -5 0 -16 -15 -25 -34z"/>
<path d="M3282 780 c0 -14 2 -19 5 -12 2 6 2 18 0 25 -3 6 -5 1 -5 -13z"/>
<path d="M1384 1498 l-19 -23 23 19 c21 18 27 26 19 26 -2 0 -12 -10 -23 -22z"/>
<path d="M4340 630 c-11 -7 -8 -10 15 -9 17 0 39 4 50 9 16 7 14 9 -15 9 -19
0 -42 -4 -50 -9z"/>
<path d="M4093 593 c-15 -3 -23 -12 -23 -25 0 -18 4 -20 41 -15 48 6 51 9 43
31 -6 16 -17 17 -61 9z"/>
<path d="M3958 573 c-27 -4 -38 -26 -18 -38 5 -3 26 -3 45 1 26 5 35 11 33 23
-3 17 -18 21 -60 14z"/>
</g>
</svg>
